<mxfile host="app.diagrams.net" modified="2023-10-03T17:50:50.820Z" agent="Mozilla/5.0 (Windows NT 10.0; Win64; x64) AppleWebKit/537.36 (KHTML, like Gecko) Chrome/117.0.0.0 Safari/537.36" version="22.0.2" etag="KTmyJC1gx1_QI4CDBzHj" type="github">
  <diagram name="Page-1" id="HHuar2-dekoxlqO1veZz">
    <mxGraphModel>
      <root>
        <mxCell id="0" />
        <mxCell id="1" parent="0" />
      </root>
    </mxGraphModel>
  </diagram>
</mxfile>
